<svg xmlns="http://www.w3.org/2000/svg" xmlns:xlink="http://www.w3.org/1999/xlink" width="500" zoomAndPan="magnify" viewBox="0 0 375 374.999991" height="500" preserveAspectRatio="xMidYMid meet" version="1.0"><defs><clipPath id="cf35e72fa3"><path d="M 108.660156 99 L 266.160156 99 L 266.160156 276 L 108.660156 276 Z M 108.660156 99 " clip-rule="nonzero"/></clipPath></defs><rect x="-37.5" width="450" fill="#ffffff" y="-37.499999" height="449.999989" fill-opacity="1"/><rect x="-37.5" width="450" fill="#ffffff" y="-37.499999" height="449.999989" fill-opacity="1"/><g clip-path="url(#cf35e72fa3)"><path fill="#ff3131" d="M 113.621094 274.820312 C 111.867188 276.382812 108.871094 275.277344 108.871094 273.066406 L 108.871094 101.921875 C 108.871094 100.421875 110.257812 99.429688 111.695312 99.441406 C 112.371094 99.445312 113.058594 99.667969 113.621094 100.167969 L 146.582031 129.527344 L 185.519531 164.210938 C 185.554688 164.242188 185.589844 164.273438 185.625 164.300781 L 185.628906 164.304688 L 186.308594 164.914062 L 227.171875 201.316406 C 227.328125 201.453125 227.496094 201.570312 227.667969 201.667969 C 229.265625 202.570312 231.445312 201.765625 231.855469 200.121094 C 231.898438 199.945312 231.921875 199.757812 231.921875 199.558594 L 231.921875 175.429688 C 231.921875 173.21875 228.925781 172.113281 227.171875 173.675781 L 225.425781 175.230469 L 221.84375 178.421875 L 197.769531 156.808594 L 201.253906 153.699219 L 261.351562 100.167969 C 263.109375 98.609375 266.105469 99.714844 266.105469 101.921875 L 266.105469 273.066406 C 266.105469 274.566406 264.71875 275.558594 263.28125 275.546875 C 262.605469 275.546875 261.914062 275.320312 261.351562 274.820312 L 228.394531 245.460938 L 189.457031 210.777344 C 189.421875 210.746094 189.386719 210.714844 189.351562 210.6875 L 189.347656 210.683594 L 188.667969 210.074219 L 147.804688 173.675781 C 147.648438 173.535156 147.480469 173.417969 147.308594 173.320312 C 145.710938 172.417969 143.53125 173.222656 143.121094 174.867188 C 143.078125 175.042969 143.054688 175.230469 143.054688 175.429688 L 143.054688 199.558594 C 143.054688 201.769531 146.046875 202.878906 147.804688 201.316406 L 149.546875 199.757812 L 153.132812 196.566406 L 177.207031 218.183594 L 173.71875 221.289062 L 113.621094 274.820312 " fill-opacity="1" fill-rule="nonzero"/></g></svg>